<?xml version="1.0" encoding="UTF-8" standalone="no"?>
<!-- Generator: Adobe Illustrator 16.0.0, SVG Export Plug-In . SVG Version: 6.00 Build 0)  -->

<svg
   xmlns:dc="http://purl.org/dc/elements/1.1/"
   xmlns:cc="http://creativecommons.org/ns#"
   xmlns:rdf="http://www.w3.org/1999/02/22-rdf-syntax-ns#"
   xmlns:svg="http://www.w3.org/2000/svg"
   xmlns="http://www.w3.org/2000/svg"
   xmlns:xlink="http://www.w3.org/1999/xlink"
   xmlns:sodipodi="http://sodipodi.sourceforge.net/DTD/sodipodi-0.dtd"
   xmlns:inkscape="http://www.inkscape.org/namespaces/inkscape"
   version="1.1"
   id="Layer_1"
   x="0px"
   y="0px"
   width="300"
   height="300"
   viewBox="0 0 300 300"
   enable-background="new 0 0 612 792"
   xml:space="preserve"
   inkscape:version="0.91 r13725"
   sodipodi:docname="appIcon.svg"
   inkscape:export-filename="/Users/xungong/Documents/xcode/Lockbox/Resource/launch.png"
   inkscape:export-xdpi="90"
   inkscape:export-ydpi="90"><metadata
     id="metadata23156"><rdf:RDF><cc:Work
         rdf:about=""><dc:format>image/svg+xml</dc:format><dc:type
           rdf:resource="http://purl.org/dc/dcmitype/StillImage" /><dc:title></dc:title></cc:Work></rdf:RDF></metadata><defs
     id="defs23154"><linearGradient
       inkscape:collect="always"
       id="linearGradient23957"><stop
         style="stop-color:#007aff;stop-opacity:1;"
         offset="0"
         id="stop23959" /><stop
         style="stop-color:#00ffff;stop-opacity:1"
         offset="1"
         id="stop23961" /></linearGradient><linearGradient
       inkscape:collect="always"
       xlink:href="#linearGradient23957"
       id="linearGradient23963"
       x1="137.90637"
       y1="212.34555"
       x2="136.67857"
       y2="0.0092267245"
       gradientUnits="userSpaceOnUse"
       gradientTransform="matrix(1.0070751,0,0,1.0070751,-1.064331,-1.0581084)" /></defs><sodipodi:namedview
     pagecolor="#ffffff"
     bordercolor="#666666"
     borderopacity="1"
     objecttolerance="10"
     gridtolerance="10"
     guidetolerance="10"
     inkscape:pageopacity="0"
     inkscape:pageshadow="2"
     inkscape:window-width="1409"
     inkscape:window-height="833"
     id="namedview23152"
     showgrid="false"
     inkscape:zoom="0.57943472"
     inkscape:cx="595.19561"
     inkscape:cy="172.47494"
     inkscape:window-x="18"
     inkscape:window-y="0"
     inkscape:window-maximized="0"
     inkscape:current-layer="Layer_1"
     inkscape:snap-object-midpoints="true"
     inkscape:snap-center="true"
     showguides="false" /><linearGradient
     id="SVGID_1_"
     gradientUnits="userSpaceOnUse"
     x1="307.2002"
     y1="532.58978"
     x2="307.2002"
     y2="229.5638"><stop
       offset="0"
       style="stop-color:#000000"
       id="stop18563" /><stop
       offset="0.45672575"
       style="stop-color:#000045"
       id="stop18565" /><stop
       offset="1"
       style="stop-color:#000000"
       id="stop18567" /></linearGradient><radialGradient
     id="SVGID_620_"
     cx="186.75941"
     cy="278.49033"
     r="31.813999"
     gradientUnits="userSpaceOnUse"
     fx="186.75941"
     fy="278.49033"><stop
       offset="0"
       style="stop-color:#FFFFFF"
       id="stop23132" /><stop
       offset="1"
       style="stop-color:#FFFFFF"
       id="stop23134" /></radialGradient><radialGradient
     id="SVGID_621_"
     cx="406.2305"
     cy="327.6001"
     r="24.2887"
     gradientUnits="userSpaceOnUse"><stop
       offset="0"
       style="stop-color:#FFFFFF"
       id="stop23139" /><stop
       offset="1"
       style="stop-color:#FFFFFF"
       id="stop23141" /></radialGradient><radialGradient
     id="SVGID_622_"
     cx="156.4648"
     cy="345.52979"
     r="15.8972"
     gradientUnits="userSpaceOnUse"><stop
       offset="0"
       style="stop-color:#0032ff;stop-opacity:1"
       id="stop23146" /><stop
       offset="1"
       style="stop-color:#007aff;stop-opacity:1"
       id="stop23148" /></radialGradient><rect
     style="fill:url(#linearGradient23963);fill-opacity:1;fill-rule:nonzero;stroke:none;stroke-width:2.97000003;stroke-linejoin:round;stroke-miterlimit:4;stroke-dasharray:none;stroke-dashoffset:0;stroke-opacity:1"
     id="rect23808"
     width="299.1312"
     height="299.1312"
     x="0.87007272"
     y="-0.0025743027"
     transform="matrix(0.99999577,0.00290867,-0.00290867,0.99999577,0,0)"
     inkscape:export-xdpi="90"
     inkscape:export-ydpi="90" /><path
     id="path23799"
     d="m 237.22126,191.47639 c -3.12056,-5.18513 -9.85945,-6.852 -15.05014,-3.72813 l -0.70654,0.42527 c -0.0495,-0.0989 -0.0989,-0.20227 -0.15383,-0.2946 -3.06232,-5.08734 -9.67485,-6.7234 -14.77324,-3.65454 l -1.72401,1.03834 -2.33494,-3.8798 c -0.62301,-1.034 -1.97782,-1.3702 -3.01508,-0.7472 l -10.94946,6.59053 c 0,0 -18.02788,-29.80573 -18.03997,-29.82667 -4.66547,-7.708 -8.83429,-16.16874 -10.37809,-25.09754 -2.0053,-11.60653 4.92259,-22.19333 6.39388,-33.47353 1.68554,-13.002 -1.12078,-26.36333 -7.86956,-37.57647 -16.62692,-27.62813 -52.55302,-36.5118 -80.24147,-19.84866 -27.68297,16.661 -36.6513,52.56513 -20.02768,80.18766 10.12537,16.8258 26.89623,24.335 45.72513,27.25887 17.91798,2.79314 29.81131,8.17934 39.98063,24.38214 13.08443,20.8408 56.43176,93.7688 56.43176,93.7688 l 26.61165,-15.9842 -3.12936,-5.17413 18.88932,-11.36814 c 1.03837,-0.62413 1.3779,-1.97233 0.75488,-3.00746 l -2.50854,-4.16767 3.57216,-2.15033 c 5.1907,-3.12387 6.87295,-9.8594 3.75458,-15.04034 l -11.21208,-18.6322 z M 123.37544,116.17185 c -13.69755,8.24307 -31.4716,3.84574 -39.69495,-9.8188 -8.22667,-13.67013 -3.79085,-31.43533 9.90671,-39.67853 13.70082,-8.24533 31.47048,-3.84467 39.69715,9.8254 8.22335,13.6646 3.79192,31.42767 -9.90891,39.67193 z"
     inkscape:connector-curvature="0"
     style="fill:#ffe680" /></svg>