<?xml version="1.0" encoding="UTF-8" standalone="no"?>
<!-- Generator: Adobe Illustrator 16.0.0, SVG Export Plug-In . SVG Version: 6.00 Build 0)  -->

<svg
   xmlns:dc="http://purl.org/dc/elements/1.1/"
   xmlns:cc="http://creativecommons.org/ns#"
   xmlns:rdf="http://www.w3.org/1999/02/22-rdf-syntax-ns#"
   xmlns:svg="http://www.w3.org/2000/svg"
   xmlns="http://www.w3.org/2000/svg"
   xmlns:xlink="http://www.w3.org/1999/xlink"
   xmlns:sodipodi="http://sodipodi.sourceforge.net/DTD/sodipodi-0.dtd"
   xmlns:inkscape="http://www.inkscape.org/namespaces/inkscape"
   version="1.1"
   id="Layer_1"
   x="0px"
   y="0px"
   width="1024"
   height="1024"
   viewBox="0 0 1024 1024"
   enable-background="new 0 0 612 792"
   xml:space="preserve"
   inkscape:version="0.91 r13725"
   sodipodi:docname="appIcon-large.svg"
   inkscape:export-filename="/Users/xungong/Documents/xcode/Lockbox/Resource/appIcon-large.png"
   inkscape:export-xdpi="90"
   inkscape:export-ydpi="90"><metadata
     id="metadata23156"><rdf:RDF><cc:Work
         rdf:about=""><dc:format>image/svg+xml</dc:format><dc:type
           rdf:resource="http://purl.org/dc/dcmitype/StillImage" /><dc:title></dc:title></cc:Work></rdf:RDF></metadata><defs
     id="defs23154"><linearGradient
       inkscape:collect="always"
       id="linearGradient23957"><stop
         style="stop-color:#007aff;stop-opacity:1;"
         offset="0"
         id="stop23959" /><stop
         style="stop-color:#00ffff;stop-opacity:1"
         offset="1"
         id="stop23961" /></linearGradient><linearGradient
       inkscape:collect="always"
       xlink:href="#linearGradient23957"
       id="linearGradient23963"
       x1="137.90637"
       y1="212.34555"
       x2="136.67857"
       y2="0.0092267245"
       gradientUnits="userSpaceOnUse"
       gradientTransform="matrix(3.437483,0,0,3.4374829,-3.6329199,-3.6115444)" /></defs><sodipodi:namedview
     pagecolor="#ffffff"
     bordercolor="#666666"
     borderopacity="1"
     objecttolerance="10"
     gridtolerance="10"
     guidetolerance="10"
     inkscape:pageopacity="0"
     inkscape:pageshadow="2"
     inkscape:window-width="1409"
     inkscape:window-height="833"
     id="namedview23152"
     showgrid="false"
     inkscape:zoom="0.57943472"
     inkscape:cx="314.74987"
     inkscape:cy="517.63893"
     inkscape:window-x="18"
     inkscape:window-y="0"
     inkscape:window-maximized="0"
     inkscape:current-layer="Layer_1"
     inkscape:snap-object-midpoints="true"
     inkscape:snap-center="true"
     showguides="false" /><linearGradient
     id="SVGID_1_"
     gradientUnits="userSpaceOnUse"
     x1="307.2002"
     y1="532.58978"
     x2="307.2002"
     y2="229.5638"><stop
       offset="0"
       style="stop-color:#000000"
       id="stop18563" /><stop
       offset="0.45672575"
       style="stop-color:#000045"
       id="stop18565" /><stop
       offset="1"
       style="stop-color:#000000"
       id="stop18567" /></linearGradient><radialGradient
     id="SVGID_620_"
     cx="186.75941"
     cy="278.49033"
     r="31.813999"
     gradientUnits="userSpaceOnUse"
     fx="186.75941"
     fy="278.49033"><stop
       offset="0"
       style="stop-color:#FFFFFF"
       id="stop23132" /><stop
       offset="1"
       style="stop-color:#FFFFFF"
       id="stop23134" /></radialGradient><radialGradient
     id="SVGID_621_"
     cx="406.2305"
     cy="327.6001"
     r="24.2887"
     gradientUnits="userSpaceOnUse"><stop
       offset="0"
       style="stop-color:#FFFFFF"
       id="stop23139" /><stop
       offset="1"
       style="stop-color:#FFFFFF"
       id="stop23141" /></radialGradient><radialGradient
     id="SVGID_622_"
     cx="156.4648"
     cy="345.52979"
     r="15.8972"
     gradientUnits="userSpaceOnUse"><stop
       offset="0"
       style="stop-color:#0032ff;stop-opacity:1"
       id="stop23146" /><stop
       offset="1"
       style="stop-color:#007aff;stop-opacity:1"
       id="stop23148" /></radialGradient><rect
     style="fill:#ffffff;fill-opacity:1;fill-rule:evenodd;stroke:none;stroke-width:1px;stroke-linecap:butt;stroke-linejoin:miter;stroke-opacity:1"
     id="rect3439"
     width="1024"
     height="1024"
     x="0"
     y="0" /><rect
     style="fill:url(#linearGradient23963);fill-opacity:1;fill-rule:nonzero;stroke:none;stroke-width:2.97000003;stroke-linejoin:round;stroke-miterlimit:4;stroke-dasharray:none;stroke-dashoffset:0;stroke-opacity:1"
     id="rect23808"
     width="1021.0345"
     height="1021.0345"
     x="2.9698441"
     y="-0.0086688725"
     transform="matrix(0.99999577,0.00290867,-0.00290867,0.99999577,0,0)"
     inkscape:export-xdpi="90"
     inkscape:export-ydpi="90" /><path
     id="path23799"
     d="m 809.42447,653.4346 c -10.64111,-17.6813 -33.62072,-23.36532 -51.32098,-12.71293 l -2.4093,1.45017 c -0.16879,-0.33724 -0.33725,-0.68974 -0.52456,-1.00458 -10.44251,-17.34783 -32.99124,-22.9268 -50.37675,-12.46198 l -5.87887,3.54074 -7.96215,-13.23012 c -2.12446,-3.52594 -6.74436,-4.67238 -10.28142,-2.54795 l -37.33766,22.4737 c 0,0 -61.47507,-101.63754 -61.51629,-101.70894 -15.90926,-26.28428 -30.12493,-55.1354 -35.38929,-85.58261 -6.83807,-39.57827 16.78603,-75.67926 21.80313,-114.14474 5.74769,-44.33682 -3.82186,-89.89895 -26.8352,-128.13576 -56.6978,-94.21193 -179.2058,-124.505244 -273.62341,-67.68393 -94.39893,56.81401 -124.98094,179.24709 -68.29439,273.43992 34.52751,57.37598 91.71614,82.98235 155.92269,92.95274 61.10031,9.52461 101.65657,27.89155 136.33395,83.1431 44.61791,71.06713 192.4323,319.75161 192.4323,319.75161 l 90.74573,-54.50612 -10.67112,-17.64379 64.41258,-38.76535 c 3.54084,-2.12829 4.69864,-6.72565 2.57414,-10.25544 l -8.55412,-14.21176 12.18107,-7.33262 c 17.70028,-10.6524 23.43676,-33.62056 12.80311,-51.28756 L 809.42447,653.4346 Z M 421.21023,396.64612 c -46.70865,28.10886 -107.31816,13.11397 -135.35978,-33.48211 -28.05295,-46.61515 -12.9268,-107.19448 33.78188,-135.30379 46.71979,-28.11657 107.31433,-13.11032 135.36728,33.50461 28.04162,46.59629 12.93045,107.16836 -33.78938,135.28129 z"
     inkscape:connector-curvature="0"
     style="fill:#ffe680" /></svg>