<?xml version="1.0" encoding="UTF-8" standalone="no"?>
<!-- Generator: Adobe Illustrator 16.0.0, SVG Export Plug-In . SVG Version: 6.00 Build 0)  -->

<svg
   xmlns:dc="http://purl.org/dc/elements/1.1/"
   xmlns:cc="http://creativecommons.org/ns#"
   xmlns:rdf="http://www.w3.org/1999/02/22-rdf-syntax-ns#"
   xmlns:svg="http://www.w3.org/2000/svg"
   xmlns="http://www.w3.org/2000/svg"
   xmlns:xlink="http://www.w3.org/1999/xlink"
   xmlns:sodipodi="http://sodipodi.sourceforge.net/DTD/sodipodi-0.dtd"
   xmlns:inkscape="http://www.inkscape.org/namespaces/inkscape"
   version="1.1"
   id="Layer_1"
   x="0px"
   y="0px"
   width="300"
   height="300"
   viewBox="0 0 300 300"
   enable-background="new 0 0 612 792"
   xml:space="preserve"
   inkscape:version="0.91 r13725"
   sodipodi:docname="defaultKeyImage.svg"
   inkscape:export-filename="/Users/xungong/Documents/xcode/Lockbox/Resource/defaultKeyImage.png"
   inkscape:export-xdpi="90"
   inkscape:export-ydpi="90"><metadata
     id="metadata23156"><rdf:RDF><cc:Work
         rdf:about=""><dc:format>image/svg+xml</dc:format><dc:type
           rdf:resource="http://purl.org/dc/dcmitype/StillImage" /><dc:title></dc:title></cc:Work></rdf:RDF></metadata><defs
     id="defs23154"><linearGradient
       inkscape:collect="always"
       id="linearGradient23957"><stop
         style="stop-color:#007aff;stop-opacity:1;"
         offset="0"
         id="stop23959" /><stop
         style="stop-color:#00ffff;stop-opacity:1"
         offset="1"
         id="stop23961" /></linearGradient><linearGradient
       inkscape:collect="always"
       xlink:href="#linearGradient23957"
       id="linearGradient23963"
       x1="137.90637"
       y1="212.34555"
       x2="136.67857"
       y2="0.0092267245"
       gradientUnits="userSpaceOnUse"
       gradientTransform="matrix(1.0070751,0,0,1.0070751,-1.064331,-1.0581987)" /></defs><sodipodi:namedview
     pagecolor="#ffffff"
     bordercolor="#666666"
     borderopacity="1"
     objecttolerance="10"
     gridtolerance="10"
     guidetolerance="10"
     inkscape:pageopacity="0"
     inkscape:pageshadow="2"
     inkscape:window-width="1409"
     inkscape:window-height="833"
     id="namedview23152"
     showgrid="false"
     inkscape:zoom="1.1588694"
     inkscape:cx="274.72094"
     inkscape:cy="59.433469"
     inkscape:window-x="18"
     inkscape:window-y="0"
     inkscape:window-maximized="0"
     inkscape:current-layer="Layer_1"
     inkscape:snap-object-midpoints="true"
     inkscape:snap-center="true"
     showguides="false" /><linearGradient
     id="SVGID_1_"
     gradientUnits="userSpaceOnUse"
     x1="307.2002"
     y1="532.58978"
     x2="307.2002"
     y2="229.5638"><stop
       offset="0"
       style="stop-color:#000000"
       id="stop18563" /><stop
       offset="0.45672575"
       style="stop-color:#000045"
       id="stop18565" /><stop
       offset="1"
       style="stop-color:#000000"
       id="stop18567" /></linearGradient><radialGradient
     id="SVGID_620_"
     cx="186.75941"
     cy="278.49033"
     r="31.813999"
     gradientUnits="userSpaceOnUse"
     fx="186.75941"
     fy="278.49033"><stop
       offset="0"
       style="stop-color:#FFFFFF"
       id="stop23132" /><stop
       offset="1"
       style="stop-color:#FFFFFF"
       id="stop23134" /></radialGradient><radialGradient
     id="SVGID_621_"
     cx="406.2305"
     cy="327.6001"
     r="24.2887"
     gradientUnits="userSpaceOnUse"><stop
       offset="0"
       style="stop-color:#FFFFFF"
       id="stop23139" /><stop
       offset="1"
       style="stop-color:#FFFFFF"
       id="stop23141" /></radialGradient><radialGradient
     id="SVGID_622_"
     cx="156.4648"
     cy="345.52979"
     r="15.8972"
     gradientUnits="userSpaceOnUse"><stop
       offset="0"
       style="stop-color:#0032ff;stop-opacity:1"
       id="stop23146" /><stop
       offset="1"
       style="stop-color:#007aff;stop-opacity:1"
       id="stop23148" /></radialGradient><rect
     style="fill:url(#linearGradient23963);fill-opacity:1;fill-rule:nonzero;stroke:none;stroke-width:2.97000003;stroke-linejoin:round;stroke-miterlimit:4;stroke-dasharray:none;stroke-dashoffset:0;stroke-opacity:1"
     id="rect23808"
     width="299.1312"
     height="299.1312"
     x="0.87007278"
     y="-0.0026734711"
     transform="matrix(0.99999577,0.00290867,-0.00290867,0.99999577,0,0)"
     inkscape:export-xdpi="90"
     inkscape:export-ydpi="90" /><path
     id="path23799"
     d="m 237.22125,191.4763 c -3.12056,-5.18512 -9.85944,-6.852 -15.05012,-3.72812 l -0.70656,0.4252 c -0.0495,-0.099 -0.0989,-0.2022 -0.15384,-0.2946 -3.06232,-5.08728 -9.67484,-6.7234 -14.77324,-3.65448 l -1.724,1.03828 -2.33492,-3.8798 c -0.62304,-1.034 -1.97784,-1.3702 -3.01508,-0.7472 l -10.94948,6.5906 c 0,0 -18.02788,-29.80584 -18.03996,-29.82672 -4.66548,-7.708 -8.83428,-16.1687 -10.37808,-25.0975 -2.00532,-11.6066 4.92256,-22.1934 6.39388,-33.473605 1.68552,-13.002 -1.1208,-26.36331 -7.86956,-37.57641 -16.62692,-27.6282 -52.55304,-36.51178 -80.241489,-19.8487 -27.68297,16.661 -36.6513,52.56511 -20.02768,80.187715 10.12537,16.8258 26.89623,24.335 45.725129,27.2588 17.91798,2.79318 29.81132,8.17938 39.98064,24.38222 13.08444,20.8408 56.43176,93.7688 56.43176,93.7688 l 26.61164,-15.9842 -3.12936,-5.1742 18.88932,-11.36808 c 1.03836,-0.62412 1.37792,-1.97232 0.75488,-3.00752 l -2.50852,-4.1676 3.57216,-2.1504 c 5.19069,-3.1238 6.87293,-9.8594 3.75456,-15.04028 L 237.22125,191.4763 Z M 123.37543,116.17176 c -13.69755,8.243 -31.471599,3.8457 -39.694949,-9.8188 -8.22667,-13.670205 -3.79085,-31.435405 9.90671,-39.678615 13.700819,-8.2453 31.470479,-3.8446 39.697139,9.82541 8.22336,13.6646 3.79192,31.427705 -9.9089,39.672005 z"
     inkscape:connector-curvature="0"
     style="fill:#ffe680" /></svg>