<?xml version="1.0" encoding="UTF-8" standalone="no"?>
<!-- Generator: Adobe Illustrator 16.0.0, SVG Export Plug-In . SVG Version: 6.00 Build 0)  -->

<svg
   xmlns:dc="http://purl.org/dc/elements/1.1/"
   xmlns:cc="http://creativecommons.org/ns#"
   xmlns:rdf="http://www.w3.org/1999/02/22-rdf-syntax-ns#"
   xmlns:svg="http://www.w3.org/2000/svg"
   xmlns="http://www.w3.org/2000/svg"
   xmlns:xlink="http://www.w3.org/1999/xlink"
   xmlns:sodipodi="http://sodipodi.sourceforge.net/DTD/sodipodi-0.dtd"
   xmlns:inkscape="http://www.inkscape.org/namespaces/inkscape"
   version="1.1"
   id="Layer_1"
   x="0px"
   y="0px"
   width="2000"
   height="2000"
   viewBox="0 0 2000 2000"
   enable-background="new 0 0 612 792"
   xml:space="preserve"
   inkscape:version="0.91 r13725"
   sodipodi:docname="launch.svg"
   inkscape:export-filename="/Users/xungong/Documents/xcode/Lockbox/Resource/appIcon.png"
   inkscape:export-xdpi="90"
   inkscape:export-ydpi="90"><metadata
     id="metadata23156"><rdf:RDF><cc:Work
         rdf:about=""><dc:format>image/svg+xml</dc:format><dc:type
           rdf:resource="http://purl.org/dc/dcmitype/StillImage" /><dc:title></dc:title></cc:Work></rdf:RDF></metadata><defs
     id="defs23154"><linearGradient
       inkscape:collect="always"
       id="linearGradient23957"><stop
         style="stop-color:#007aff;stop-opacity:1;"
         offset="0"
         id="stop23959" /><stop
         style="stop-color:#00ffff;stop-opacity:1"
         offset="1"
         id="stop23961" /></linearGradient><linearGradient
       inkscape:collect="always"
       xlink:href="#linearGradient23957"
       id="linearGradient23963"
       x1="137.90637"
       y1="212.34555"
       x2="136.67857"
       y2="0.0092267245"
       gradientUnits="userSpaceOnUse"
       gradientTransform="matrix(6.7138339,0,0,6.7138339,-7.0955538,-7.0538074)" /></defs><sodipodi:namedview
     pagecolor="#ffffff"
     bordercolor="#666666"
     borderopacity="1"
     objecttolerance="10"
     gridtolerance="10"
     guidetolerance="10"
     inkscape:pageopacity="0"
     inkscape:pageshadow="2"
     inkscape:window-width="1409"
     inkscape:window-height="833"
     id="namedview23152"
     showgrid="false"
     inkscape:zoom="0.20486111"
     inkscape:cx="345.11971"
     inkscape:cy="1016.1008"
     inkscape:window-x="18"
     inkscape:window-y="0"
     inkscape:window-maximized="0"
     inkscape:current-layer="Layer_1"
     inkscape:snap-object-midpoints="true"
     inkscape:snap-center="true"
     showguides="false" /><linearGradient
     id="SVGID_1_"
     gradientUnits="userSpaceOnUse"
     x1="307.2002"
     y1="532.58978"
     x2="307.2002"
     y2="229.5638"><stop
       offset="0"
       style="stop-color:#000000"
       id="stop18563" /><stop
       offset="0.45672575"
       style="stop-color:#000045"
       id="stop18565" /><stop
       offset="1"
       style="stop-color:#000000"
       id="stop18567" /></linearGradient><radialGradient
     id="SVGID_620_"
     cx="186.75941"
     cy="278.49033"
     r="31.813999"
     gradientUnits="userSpaceOnUse"
     fx="186.75941"
     fy="278.49033"><stop
       offset="0"
       style="stop-color:#FFFFFF"
       id="stop23132" /><stop
       offset="1"
       style="stop-color:#FFFFFF"
       id="stop23134" /></radialGradient><radialGradient
     id="SVGID_621_"
     cx="406.2305"
     cy="327.6001"
     r="24.2887"
     gradientUnits="userSpaceOnUse"><stop
       offset="0"
       style="stop-color:#FFFFFF"
       id="stop23139" /><stop
       offset="1"
       style="stop-color:#FFFFFF"
       id="stop23141" /></radialGradient><radialGradient
     id="SVGID_622_"
     cx="156.4648"
     cy="345.52979"
     r="15.8972"
     gradientUnits="userSpaceOnUse"><stop
       offset="0"
       style="stop-color:#0032ff;stop-opacity:1"
       id="stop23146" /><stop
       offset="1"
       style="stop-color:#007aff;stop-opacity:1"
       id="stop23148" /></radialGradient><rect
     style="fill:url(#linearGradient23963);fill-opacity:1;fill-rule:nonzero;stroke:none;stroke-width:2.97000003;stroke-linejoin:round;stroke-miterlimit:4;stroke-dasharray:none;stroke-dashoffset:0;stroke-opacity:1"
     id="rect23808"
     width="1994.2079"
     height="1994.2079"
     x="5.8004708"
     y="-0.016911644"
     transform="matrix(0.99999577,0.00290867,-0.00290867,0.99999577,0,0)"
     inkscape:export-xdpi="90"
     inkscape:export-ydpi="90" /><path
     id="path23799"
     d="m 1218.0531,1103.691 c -7.8014,-12.9628 -24.6486,-17.13 -37.6253,-9.3203 l -1.7664,1.063 c -0.1237,-0.2475 -0.2472,-0.5055 -0.3846,-0.7365 -7.6558,-12.7182 -24.1871,-16.8085 -36.9331,-9.1362 l -4.31,2.5957 -5.8373,-9.6995 c -1.5576,-2.585 -4.9446,-3.4255 -7.5377,-1.868 l -27.3737,16.4765 c 0,0 -45.0697,-74.5146 -45.0999,-74.5668 -11.6637,-19.27 -22.0857,-40.42175 -25.9452,-62.74375 -5.0133,-29.0165 12.3064,-55.4835 15.9847,-83.684 4.2138,-32.505 -2.802,-65.90825 -19.6739,-93.941 -41.56731,-69.0705 -131.3826,-91.2795 -200.60372,-49.62175 -69.20743,41.6525 -91.62825,131.41275 -50.0692,200.46925 25.31342,42.0645 67.24057,60.8375 114.31282,68.147 44.79495,6.98295 74.52829,20.44845 99.95159,60.95555 32.71111,52.102 141.07941,234.422 141.07941,234.422 l 66.5291,-39.9605 -7.8234,-12.9355 47.2233,-28.4202 c 2.5959,-1.5603 3.4448,-4.9308 1.8872,-7.5188 l -6.2713,-10.419 8.9304,-5.376 c 12.9767,-7.8095 17.1823,-24.6485 9.3864,-37.6007 l -28.0302,-46.5805 z M 933.43855,915.42965 c -34.24387,20.6075 -78.679,9.61425 -99.23737,-24.547 -20.56668,-34.1755 -9.47713,-78.5885 24.76677,-99.1965 34.25205,-20.61325 78.6762,-9.6115 99.24284,24.5635 20.5584,34.1615 9.4798,78.56925 -24.77224,99.18 z"
     inkscape:connector-curvature="0"
     style="fill:#ffe680" /></svg>